<?xml version="1.0" encoding="utf-8"?>
<!DOCTYPE svg PUBLIC "-//W3C//DTD SVG 1.1//EN" "http://www.w3.org/Graphics/SVG/1.1/DTD/svg11.dtd">
<svg version="1.1" id="Layer_1" xmlns="http://www.w3.org/2000/svg" xmlns:xlink="http://www.w3.org/1999/xlink" x="0px" y="0px"
width="2277px" height="2277px" viewBox="0 0 2277 2277" enable-background="new 0 0 2277 2277" xml:space="preserve">
<rect x="0" y="0" width="2277" height="2277" fill="rgb(255,255,255)" /><g transform="translate(138,138)"><g transform="translate(759,0) scale(0.69,0.69)"><g transform="" style="fill: rgb(0, 0, 0);">
<g>
	<polygon points="5,25 75,5 95,75 25,95"/>
</g>
</g></g><g transform="translate(828,0) scale(0.69,0.69)"><g transform="" style="fill: rgb(0, 0, 0);">
<g>
	<polygon points="15,5 5,85 85,95 95,15"/>
</g>
</g></g><g transform="translate(1035,0) scale(0.69,0.69)"><g transform="" style="fill: rgb(0, 0, 0);">
<g>
	<polygon points="5,25 75,5 95,75 25,95"/>
</g>
</g></g><g transform="translate(1104,0) scale(0.69,0.69)"><g transform="" style="fill: rgb(0, 0, 0);">
<polygon points="8,4 4,92 92,96 96,8"/>
</g></g><g transform="translate(1173,0) scale(0.69,0.69)"><g transform="" style="fill: rgb(0, 0, 0);">
<g>
	<polygon points="22,0 0,78 78,100 100,22"/>
</g>
</g></g><g transform="translate(552,69) scale(0.69,0.69)"><g transform="" style="fill: rgb(0, 0, 0);">
<g>
	<polygon points="0,5 95,0 100,95 5,100"/>
</g>
</g></g><g transform="translate(690,69) scale(0.69,0.69)"><g transform="" style="fill: rgb(0, 0, 0);">
<g>
	<polygon points="0,15 85,0 100,85 15,100"/>
</g>
</g></g><g transform="translate(897,69) scale(0.69,0.69)"><g transform="" style="fill: rgb(0, 0, 0);">
<g>
	<polygon points="0,12 88,0 100,88 12,100"/>
</g>
</g></g><g transform="translate(966,69) scale(0.69,0.69)"><g transform="" style="fill: rgb(0, 0, 0);">
<g>
	<polygon points="15,5 5,85 85,95 95,15"/>
</g>
</g></g><g transform="translate(1104,69) scale(0.69,0.69)"><g transform="" style="fill: rgb(0, 0, 0);">
<g>
	<polygon points="13,0 0,87 87,100 100,13"/>
</g>
</g></g><g transform="translate(1173,69) scale(0.69,0.69)"><g transform="" style="fill: rgb(0, 0, 0);">
<polygon points="8,4 4,92 92,96 96,8"/>
</g></g><g transform="translate(1242,69) scale(0.69,0.69)"><g transform="" style="fill: rgb(0, 0, 0);">
<g>
	<polygon points="22,0 0,78 78,100 100,22"/>
</g>
</g></g><g transform="translate(552,138) scale(0.69,0.69)"><g transform="" style="fill: rgb(0, 0, 0);">
<polygon points="8,4 4,92 92,96 96,8"/>
</g></g><g transform="translate(759,138) scale(0.69,0.69)"><g transform="" style="fill: rgb(0, 0, 0);">
<g>
	<polygon points="0,12 88,0 100,88 12,100"/>
</g>
</g></g><g transform="translate(828,138) scale(0.69,0.69)"><g transform="" style="fill: rgb(0, 0, 0);">
<polygon points="8,4 4,92 92,96 96,8"/>
</g></g><g transform="translate(897,138) scale(0.69,0.69)"><g transform="" style="fill: rgb(0, 0, 0);">
<g>
	<polygon points="0,17 83,0 100,83 17,100"/>
</g>
</g></g><g transform="translate(1035,138) scale(0.69,0.69)"><g transform="" style="fill: rgb(0, 0, 0);">
<g>
	<polygon points="0,15 85,0 100,85 15,100"/>
</g>
</g></g><g transform="translate(1242,138) scale(0.69,0.69)"><g transform="" style="fill: rgb(0, 0, 0);">
<g>
	<polygon points="0,10 90,0 100,90 10,100"/>
</g>
</g></g><g transform="translate(1380,138) scale(0.69,0.69)"><g transform="" style="fill: rgb(0, 0, 0);">
<g>
	<polygon points="0,15 85,0 100,85 15,100"/>
</g>
</g></g><g transform="translate(552,207) scale(0.69,0.69)"><g transform="" style="fill: rgb(0, 0, 0);">
<g>
	<polygon points="0,10 90,0 100,90 10,100"/>
</g>
</g></g><g transform="translate(690,207) scale(0.69,0.69)"><g transform="" style="fill: rgb(0, 0, 0);">
<g>
	<polygon points="0,12 88,0 100,88 12,100"/>
</g>
</g></g><g transform="translate(759,207) scale(0.69,0.69)"><g transform="" style="fill: rgb(0, 0, 0);">
<g>
	<polygon points="0,17 83,0 100,83 17,100"/>
</g>
</g></g><g transform="translate(1104,207) scale(0.69,0.69)"><g transform="" style="fill: rgb(0, 0, 0);">
<g>
	<polygon points="0,12 88,0 100,88 12,100"/>
</g>
</g></g><g transform="translate(1173,207) scale(0.69,0.69)"><g transform="" style="fill: rgb(0, 0, 0);">
<g>
	<polygon points="22,0 0,78 78,100 100,22"/>
</g>
</g></g><g transform="translate(621,276) scale(0.69,0.69)"><g transform="" style="fill: rgb(0, 0, 0);">
<g>
	<polygon points="0,12 88,0 100,88 12,100"/>
</g>
</g></g><g transform="translate(690,276) scale(0.69,0.69)"><g transform="" style="fill: rgb(0, 0, 0);">
<polygon points="8,4 4,92 92,96 96,8"/>
</g></g><g transform="translate(1035,276) scale(0.69,0.69)"><g transform="" style="fill: rgb(0, 0, 0);">
<g>
	<polygon points="0,12 88,0 100,88 12,100"/>
</g>
</g></g><g transform="translate(1104,276) scale(0.69,0.69)"><g transform="" style="fill: rgb(0, 0, 0);">
<polygon points="8,4 4,92 92,96 96,8"/>
</g></g><g transform="translate(1173,276) scale(0.69,0.69)"><g transform="" style="fill: rgb(0, 0, 0);">
<g>
	<polygon points="0,17 83,0 100,83 17,100"/>
</g>
</g></g><g transform="translate(1311,276) scale(0.69,0.69)"><g transform="" style="fill: rgb(0, 0, 0);">
<g>
	<polygon points="5,25 75,5 95,75 25,95"/>
</g>
</g></g><g transform="translate(1380,276) scale(0.69,0.69)"><g transform="" style="fill: rgb(0, 0, 0);">
<g>
	<polygon points="22,0 0,78 78,100 100,22"/>
</g>
</g></g><g transform="translate(621,345) scale(0.69,0.69)"><g transform="" style="fill: rgb(0, 0, 0);">
<g>
	<polygon points="13,0 0,87 87,100 100,13"/>
</g>
</g></g><g transform="translate(690,345) scale(0.69,0.69)"><g transform="" style="fill: rgb(0, 0, 0);">
<polygon points="8,4 4,92 92,96 96,8"/>
</g></g><g transform="translate(1035,345) scale(0.69,0.69)"><g transform="" style="fill: rgb(0, 0, 0);">
<g>
	<polygon points="0,10 90,0 100,90 10,100"/>
</g>
</g></g><g transform="translate(1242,345) scale(0.69,0.69)"><g transform="" style="fill: rgb(0, 0, 0);">
<g>
	<polygon points="0,5 95,0 100,95 5,100"/>
</g>
</g></g><g transform="translate(1380,345) scale(0.69,0.69)"><g transform="" style="fill: rgb(0, 0, 0);">
<polygon points="8,4 4,92 92,96 96,8"/>
</g></g><g transform="translate(552,414) scale(0.69,0.69)"><g transform="" style="fill: rgb(0, 0, 0);">
<g>
	<polygon points="0,5 95,0 100,95 5,100"/>
</g>
</g></g><g transform="translate(690,414) scale(0.69,0.69)"><g transform="" style="fill: rgb(0, 0, 0);">
<g>
	<polygon points="0,10 90,0 100,90 10,100"/>
</g>
</g></g><g transform="translate(828,414) scale(0.69,0.69)"><g transform="" style="fill: rgb(0, 0, 0);">
<g>
	<polygon points="0,15 85,0 100,85 15,100"/>
</g>
</g></g><g transform="translate(966,414) scale(0.69,0.69)"><g transform="" style="fill: rgb(0, 0, 0);">
<g>
	<polygon points="0,5 95,0 100,95 5,100"/>
</g>
</g></g><g transform="translate(1104,414) scale(0.69,0.69)"><g transform="" style="fill: rgb(0, 0, 0);">
<g>
	<polygon points="0,5 95,0 100,95 5,100"/>
</g>
</g></g><g transform="translate(1242,414) scale(0.69,0.69)"><g transform="" style="fill: rgb(0, 0, 0);">
<g>
	<polygon points="0,10 90,0 100,90 10,100"/>
</g>
</g></g><g transform="translate(1380,414) scale(0.69,0.69)"><g transform="" style="fill: rgb(0, 0, 0);">
<g>
	<polygon points="0,10 90,0 100,90 10,100"/>
</g>
</g></g><g transform="translate(552,483) scale(0.69,0.69)"><g transform="" style="fill: rgb(0, 0, 0);">
<polygon points="8,4 4,92 92,96 96,8"/>
</g></g><g transform="translate(621,483) scale(0.69,0.69)"><g transform="" style="fill: rgb(0, 0, 0);">
<g>
	<polygon points="22,0 0,78 78,100 100,22"/>
</g>
</g></g><g transform="translate(759,483) scale(0.69,0.69)"><g transform="" style="fill: rgb(0, 0, 0);">
<g>
	<polygon points="0,5 95,0 100,95 5,100"/>
</g>
</g></g><g transform="translate(966,483) scale(0.69,0.69)"><g transform="" style="fill: rgb(0, 0, 0);">
<g>
	<polygon points="13,0 0,87 87,100 100,13"/>
</g>
</g></g><g transform="translate(1035,483) scale(0.69,0.69)"><g transform="" style="fill: rgb(0, 0, 0);">
<polygon points="8,4 4,92 92,96 96,8"/>
</g></g><g transform="translate(1104,483) scale(0.69,0.69)"><g transform="" style="fill: rgb(0, 0, 0);">
<polygon points="8,4 4,92 92,96 96,8"/>
</g></g><g transform="translate(0,552) scale(0.69,0.69)"><g transform="" style="fill: rgb(0, 0, 0);">
<g>
	<polygon points="0,15 85,0 100,85 15,100"/>
</g>
</g></g><g transform="translate(414,552) scale(0.69,0.69)"><g transform="" style="fill: rgb(0, 0, 0);">
<g>
	<polygon points="0,15 85,0 100,85 15,100"/>
</g>
</g></g><g transform="translate(552,552) scale(0.69,0.69)"><g transform="" style="fill: rgb(0, 0, 0);">
<g>
	<polygon points="13,0 0,87 87,100 100,13"/>
</g>
</g></g><g transform="translate(621,552) scale(0.69,0.69)"><g transform="" style="fill: rgb(0, 0, 0);">
<polygon points="8,4 4,92 92,96 96,8"/>
</g></g><g transform="translate(690,552) scale(0.69,0.69)"><g transform="" style="fill: rgb(0, 0, 0);">
<polygon points="8,4 4,92 92,96 96,8"/>
</g></g><g transform="translate(759,552) scale(0.69,0.69)"><g transform="" style="fill: rgb(0, 0, 0);">
<polygon points="8,4 4,92 92,96 96,8"/>
</g></g><g transform="translate(828,552) scale(0.69,0.69)"><g transform="" style="fill: rgb(0, 0, 0);">
<g>
	<polygon points="22,0 0,78 78,100 100,22"/>
</g>
</g></g><g transform="translate(1104,552) scale(0.69,0.69)"><g transform="" style="fill: rgb(0, 0, 0);">
<polygon points="8,4 4,92 92,96 96,8"/>
</g></g><g transform="translate(1173,552) scale(0.69,0.69)"><g transform="" style="fill: rgb(0, 0, 0);">
<g>
	<polygon points="22,0 0,78 78,100 100,22"/>
</g>
</g></g><g transform="translate(1449,552) scale(0.69,0.69)"><g transform="" style="fill: rgb(0, 0, 0);">
<g>
	<polygon points="0,12 88,0 100,88 12,100"/>
</g>
</g></g><g transform="translate(1518,552) scale(0.69,0.69)"><g transform="" style="fill: rgb(0, 0, 0);">
<g>
	<polygon points="15,5 5,85 85,95 95,15"/>
</g>
</g></g><g transform="translate(1725,552) scale(0.69,0.69)"><g transform="" style="fill: rgb(0, 0, 0);">
<g>
	<polygon points="5,25 75,5 95,75 25,95"/>
</g>
</g></g><g transform="translate(1794,552) scale(0.69,0.69)"><g transform="" style="fill: rgb(0, 0, 0);">
<polygon points="8,4 4,92 92,96 96,8"/>
</g></g><g transform="translate(1863,552) scale(0.69,0.69)"><g transform="" style="fill: rgb(0, 0, 0);">
<g>
	<polygon points="22,0 0,78 78,100 100,22"/>
</g>
</g></g><g transform="translate(138,621) scale(0.69,0.69)"><g transform="" style="fill: rgb(0, 0, 0);">
<g>
	<polygon points="0,12 88,0 100,88 12,100"/>
</g>
</g></g><g transform="translate(207,621) scale(0.69,0.69)"><g transform="" style="fill: rgb(0, 0, 0);">
<polygon points="8,4 4,92 92,96 96,8"/>
</g></g><g transform="translate(276,621) scale(0.69,0.69)"><g transform="" style="fill: rgb(0, 0, 0);">
<polygon points="8,4 4,92 92,96 96,8"/>
</g></g><g transform="translate(345,621) scale(0.69,0.69)"><g transform="" style="fill: rgb(0, 0, 0);">
<g>
	<polygon points="15,5 5,85 85,95 95,15"/>
</g>
</g></g><g transform="translate(690,621) scale(0.69,0.69)"><g transform="" style="fill: rgb(0, 0, 0);">
<g>
	<polygon points="13,0 0,87 87,100 100,13"/>
</g>
</g></g><g transform="translate(759,621) scale(0.69,0.69)"><g transform="" style="fill: rgb(0, 0, 0);">
<polygon points="8,4 4,92 92,96 96,8"/>
</g></g><g transform="translate(828,621) scale(0.69,0.69)"><g transform="" style="fill: rgb(0, 0, 0);">
<polygon points="8,4 4,92 92,96 96,8"/>
</g></g><g transform="translate(897,621) scale(0.69,0.69)"><g transform="" style="fill: rgb(0, 0, 0);">
<g>
	<polygon points="22,0 0,78 78,100 100,22"/>
</g>
</g></g><g transform="translate(1104,621) scale(0.69,0.69)"><g transform="" style="fill: rgb(0, 0, 0);">
<polygon points="8,4 4,92 92,96 96,8"/>
</g></g><g transform="translate(1173,621) scale(0.69,0.69)"><g transform="" style="fill: rgb(0, 0, 0);">
<polygon points="8,4 4,92 92,96 96,8"/>
</g></g><g transform="translate(1242,621) scale(0.69,0.69)"><g transform="" style="fill: rgb(0, 0, 0);">
<polygon points="8,4 4,92 92,96 96,8"/>
</g></g><g transform="translate(1311,621) scale(0.69,0.69)"><g transform="" style="fill: rgb(0, 0, 0);">
<g>
	<polygon points="15,5 5,85 85,95 95,15"/>
</g>
</g></g><g transform="translate(1449,621) scale(0.69,0.69)"><g transform="" style="fill: rgb(0, 0, 0);">
<polygon points="8,4 4,92 92,96 96,8"/>
</g></g><g transform="translate(1587,621) scale(0.69,0.69)"><g transform="" style="fill: rgb(0, 0, 0);">
<g>
	<polygon points="0,12 88,0 100,88 12,100"/>
</g>
</g></g><g transform="translate(1656,621) scale(0.69,0.69)"><g transform="" style="fill: rgb(0, 0, 0);">
<g>
	<polygon points="15,5 5,85 85,95 95,15"/>
</g>
</g></g><g transform="translate(1794,621) scale(0.69,0.69)"><g transform="" style="fill: rgb(0, 0, 0);">
<g>
	<polygon points="13,0 0,87 87,100 100,13"/>
</g>
</g></g><g transform="translate(1863,621) scale(0.69,0.69)"><g transform="" style="fill: rgb(0, 0, 0);">
<g>
	<polygon points="0,17 83,0 100,83 17,100"/>
</g>
</g></g><g transform="translate(0,690) scale(0.69,0.69)"><g transform="" style="fill: rgb(0, 0, 0);">
<g>
	<polygon points="0,12 88,0 100,88 12,100"/>
</g>
</g></g><g transform="translate(69,690) scale(0.69,0.69)"><g transform="" style="fill: rgb(0, 0, 0);">
<polygon points="8,4 4,92 92,96 96,8"/>
</g></g><g transform="translate(138,690) scale(0.69,0.69)"><g transform="" style="fill: rgb(0, 0, 0);">
<polygon points="8,4 4,92 92,96 96,8"/>
</g></g><g transform="translate(207,690) scale(0.69,0.69)"><g transform="" style="fill: rgb(0, 0, 0);">
<g>
	<polygon points="0,17 83,0 100,83 17,100"/>
</g>
</g></g><g transform="translate(414,690) scale(0.69,0.69)"><g transform="" style="fill: rgb(0, 0, 0);">
<g>
	<polygon points="0,15 85,0 100,85 15,100"/>
</g>
</g></g><g transform="translate(621,690) scale(0.69,0.69)"><g transform="" style="fill: rgb(0, 0, 0);">
<g>
	<polygon points="0,5 95,0 100,95 5,100"/>
</g>
</g></g><g transform="translate(759,690) scale(0.69,0.69)"><g transform="" style="fill: rgb(0, 0, 0);">
<g>
	<polygon points="0,10 90,0 100,90 10,100"/>
</g>
</g></g><g transform="translate(897,690) scale(0.69,0.69)"><g transform="" style="fill: rgb(0, 0, 0);">
<polygon points="8,4 4,92 92,96 96,8"/>
</g></g><g transform="translate(966,690) scale(0.69,0.69)"><g transform="" style="fill: rgb(0, 0, 0);">
<polygon points="8,4 4,92 92,96 96,8"/>
</g></g><g transform="translate(1035,690) scale(0.69,0.69)"><g transform="" style="fill: rgb(0, 0, 0);">
<polygon points="8,4 4,92 92,96 96,8"/>
</g></g><g transform="translate(1104,690) scale(0.69,0.69)"><g transform="" style="fill: rgb(0, 0, 0);">
<polygon points="8,4 4,92 92,96 96,8"/>
</g></g><g transform="translate(1173,690) scale(0.69,0.69)"><g transform="" style="fill: rgb(0, 0, 0);">
<polygon points="8,4 4,92 92,96 96,8"/>
</g></g><g transform="translate(1242,690) scale(0.69,0.69)"><g transform="" style="fill: rgb(0, 0, 0);">
<g>
	<polygon points="0,17 83,0 100,83 17,100"/>
</g>
</g></g><g transform="translate(1449,690) scale(0.69,0.69)"><g transform="" style="fill: rgb(0, 0, 0);">
<polygon points="8,4 4,92 92,96 96,8"/>
</g></g><g transform="translate(1587,690) scale(0.69,0.69)"><g transform="" style="fill: rgb(0, 0, 0);">
<g>
	<polygon points="0,10 90,0 100,90 10,100"/>
</g>
</g></g><g transform="translate(0,759) scale(0.69,0.69)"><g transform="" style="fill: rgb(0, 0, 0);">
<g>
	<polygon points="13,0 0,87 87,100 100,13"/>
</g>
</g></g><g transform="translate(69,759) scale(0.69,0.69)"><g transform="" style="fill: rgb(0, 0, 0);">
<polygon points="8,4 4,92 92,96 96,8"/>
</g></g><g transform="translate(138,759) scale(0.69,0.69)"><g transform="" style="fill: rgb(0, 0, 0);">
<polygon points="8,4 4,92 92,96 96,8"/>
</g></g><g transform="translate(552,759) scale(0.69,0.69)"><g transform="" style="fill: rgb(0, 0, 0);">
<g>
	<polygon points="0,12 88,0 100,88 12,100"/>
</g>
</g></g><g transform="translate(621,759) scale(0.69,0.69)"><g transform="" style="fill: rgb(0, 0, 0);">
<polygon points="8,4 4,92 92,96 96,8"/>
</g></g><g transform="translate(690,759) scale(0.69,0.69)"><g transform="" style="fill: rgb(0, 0, 0);">
<g>
	<polygon points="15,5 5,85 85,95 95,15"/>
</g>
</g></g><g transform="translate(828,759) scale(0.69,0.69)"><g transform="" style="fill: rgb(0, 0, 0);">
<g>
	<polygon points="5,25 75,5 95,75 25,95"/>
</g>
</g></g><g transform="translate(897,759) scale(0.69,0.69)"><g transform="" style="fill: rgb(0, 0, 0);">
<polygon points="8,4 4,92 92,96 96,8"/>
</g></g><g transform="translate(1449,759) scale(0.69,0.69)"><g transform="" style="fill: rgb(0, 0, 0);">
<g>
	<polygon points="13,0 0,87 87,100 100,13"/>
</g>
</g></g><g transform="translate(1518,759) scale(0.69,0.69)"><g transform="" style="fill: rgb(0, 0, 0);">
<g>
	<polygon points="22,0 0,78 78,100 100,22"/>
</g>
</g></g><g transform="translate(1725,759) scale(0.69,0.69)"><g transform="" style="fill: rgb(0, 0, 0);">
<g>
	<polygon points="0,15 85,0 100,85 15,100"/>
</g>
</g></g><g transform="translate(69,828) scale(0.69,0.69)"><g transform="" style="fill: rgb(0, 0, 0);">
<polygon points="8,4 4,92 92,96 96,8"/>
</g></g><g transform="translate(138,828) scale(0.69,0.69)"><g transform="" style="fill: rgb(0, 0, 0);">
<polygon points="8,4 4,92 92,96 96,8"/>
</g></g><g transform="translate(207,828) scale(0.69,0.69)"><g transform="" style="fill: rgb(0, 0, 0);">
<polygon points="8,4 4,92 92,96 96,8"/>
</g></g><g transform="translate(276,828) scale(0.69,0.69)"><g transform="" style="fill: rgb(0, 0, 0);">
<g>
	<polygon points="22,0 0,78 78,100 100,22"/>
</g>
</g></g><g transform="translate(414,828) scale(0.69,0.69)"><g transform="" style="fill: rgb(0, 0, 0);">
<g>
	<polygon points="5,25 75,5 95,75 25,95"/>
</g>
</g></g><g transform="translate(483,828) scale(0.69,0.69)"><g transform="" style="fill: rgb(0, 0, 0);">
<polygon points="8,4 4,92 92,96 96,8"/>
</g></g><g transform="translate(552,828) scale(0.69,0.69)"><g transform="" style="fill: rgb(0, 0, 0);">
<polygon points="8,4 4,92 92,96 96,8"/>
</g></g><g transform="translate(759,828) scale(0.69,0.69)"><g transform="" style="fill: rgb(0, 0, 0);">
<g>
	<polygon points="0,5 95,0 100,95 5,100"/>
</g>
</g></g><g transform="translate(897,828) scale(0.69,0.69)"><g transform="" style="fill: rgb(0, 0, 0);">
<g>
	<polygon points="0,10 90,0 100,90 10,100"/>
</g>
</g></g><g transform="translate(1035,828) scale(0.69,0.69)"><g transform="" style="fill: rgb(0, 0, 0);">
<g>
	<polygon points="5,25 75,5 95,75 25,95"/>
</g>
</g></g><g transform="translate(1104,828) scale(0.69,0.69)"><g transform="" style="fill: rgb(0, 0, 0);">
<g>
	<polygon points="22,0 0,78 78,100 100,22"/>
</g>
</g></g><g transform="translate(1242,828) scale(0.69,0.69)"><g transform="" style="fill: rgb(0, 0, 0);">
<g>
	<polygon points="0,12 88,0 100,88 12,100"/>
</g>
</g></g><g transform="translate(1311,828) scale(0.69,0.69)"><g transform="" style="fill: rgb(0, 0, 0);">
<g>
	<polygon points="22,0 0,78 78,100 100,22"/>
</g>
</g></g><g transform="translate(1518,828) scale(0.69,0.69)"><g transform="" style="fill: rgb(0, 0, 0);">
<polygon points="8,4 4,92 92,96 96,8"/>
</g></g><g transform="translate(1587,828) scale(0.69,0.69)"><g transform="" style="fill: rgb(0, 0, 0);">
<g>
	<polygon points="22,0 0,78 78,100 100,22"/>
</g>
</g></g><g transform="translate(1932,828) scale(0.69,0.69)"><g transform="" style="fill: rgb(0, 0, 0);">
<g>
	<polygon points="0,5 95,0 100,95 5,100"/>
</g>
</g></g><g transform="translate(69,897) scale(0.69,0.69)"><g transform="" style="fill: rgb(0, 0, 0);">
<g>
	<polygon points="0,10 90,0 100,90 10,100"/>
</g>
</g></g><g transform="translate(207,897) scale(0.69,0.69)"><g transform="" style="fill: rgb(0, 0, 0);">
<g>
	<polygon points="13,0 0,87 87,100 100,13"/>
</g>
</g></g><g transform="translate(276,897) scale(0.69,0.69)"><g transform="" style="fill: rgb(0, 0, 0);">
<g>
	<polygon points="0,17 83,0 100,83 17,100"/>
</g>
</g></g><g transform="translate(552,897) scale(0.69,0.69)"><g transform="" style="fill: rgb(0, 0, 0);">
<g>
	<polygon points="0,10 90,0 100,90 10,100"/>
</g>
</g></g><g transform="translate(690,897) scale(0.69,0.69)"><g transform="" style="fill: rgb(0, 0, 0);">
<g>
	<polygon points="5,25 75,5 95,75 25,95"/>
</g>
</g></g><g transform="translate(759,897) scale(0.69,0.69)"><g transform="" style="fill: rgb(0, 0, 0);">
<polygon points="8,4 4,92 92,96 96,8"/>
</g></g><g transform="translate(828,897) scale(0.69,0.69)"><g transform="" style="fill: rgb(0, 0, 0);">
<g>
	<polygon points="22,0 0,78 78,100 100,22"/>
</g>
</g></g><g transform="translate(1104,897) scale(0.69,0.69)"><g transform="" style="fill: rgb(0, 0, 0);">
<g>
	<polygon points="13,0 0,87 87,100 100,13"/>
</g>
</g></g><g transform="translate(1173,897) scale(0.69,0.69)"><g transform="" style="fill: rgb(0, 0, 0);">
<polygon points="8,4 4,92 92,96 96,8"/>
</g></g><g transform="translate(1242,897) scale(0.69,0.69)"><g transform="" style="fill: rgb(0, 0, 0);">
<polygon points="8,4 4,92 92,96 96,8"/>
</g></g><g transform="translate(1311,897) scale(0.69,0.69)"><g transform="" style="fill: rgb(0, 0, 0);">
<polygon points="8,4 4,92 92,96 96,8"/>
</g></g><g transform="translate(1380,897) scale(0.69,0.69)"><g transform="" style="fill: rgb(0, 0, 0);">
<g>
	<polygon points="22,0 0,78 78,100 100,22"/>
</g>
</g></g><g transform="translate(1518,897) scale(0.69,0.69)"><g transform="" style="fill: rgb(0, 0, 0);">
<g>
	<polygon points="13,0 0,87 87,100 100,13"/>
</g>
</g></g><g transform="translate(1587,897) scale(0.69,0.69)"><g transform="" style="fill: rgb(0, 0, 0);">
<polygon points="8,4 4,92 92,96 96,8"/>
</g></g><g transform="translate(1656,897) scale(0.69,0.69)"><g transform="" style="fill: rgb(0, 0, 0);">
<g>
	<polygon points="22,0 0,78 78,100 100,22"/>
</g>
</g></g><g transform="translate(1863,897) scale(0.69,0.69)"><g transform="" style="fill: rgb(0, 0, 0);">
<g>
	<polygon points="5,25 75,5 95,75 25,95"/>
</g>
</g></g><g transform="translate(1932,897) scale(0.69,0.69)"><g transform="" style="fill: rgb(0, 0, 0);">
<g>
	<polygon points="0,17 83,0 100,83 17,100"/>
</g>
</g></g><g transform="translate(138,966) scale(0.69,0.69)"><g transform="" style="fill: rgb(0, 0, 0);">
<g>
	<polygon points="0,15 85,0 100,85 15,100"/>
</g>
</g></g><g transform="translate(414,966) scale(0.69,0.69)"><g transform="" style="fill: rgb(0, 0, 0);">
<g>
	<polygon points="0,15 85,0 100,85 15,100"/>
</g>
</g></g><g transform="translate(621,966) scale(0.69,0.69)"><g transform="" style="fill: rgb(0, 0, 0);">
<g>
	<polygon points="0,15 85,0 100,85 15,100"/>
</g>
</g></g><g transform="translate(828,966) scale(0.69,0.69)"><g transform="" style="fill: rgb(0, 0, 0);">
<g>
	<polygon points="0,10 90,0 100,90 10,100"/>
</g>
</g></g><g transform="translate(1173,966) scale(0.69,0.69)"><g transform="" style="fill: rgb(0, 0, 0);">
<g>
	<polygon points="0,10 90,0 100,90 10,100"/>
</g>
</g></g><g transform="translate(1380,966) scale(0.69,0.69)"><g transform="" style="fill: rgb(0, 0, 0);">
<g>
	<polygon points="13,0 0,87 87,100 100,13"/>
</g>
</g></g><g transform="translate(1449,966) scale(0.69,0.69)"><g transform="" style="fill: rgb(0, 0, 0);">
<g>
	<polygon points="22,0 0,78 78,100 100,22"/>
</g>
</g></g><g transform="translate(1587,966) scale(0.69,0.69)"><g transform="" style="fill: rgb(0, 0, 0);">
<polygon points="8,4 4,92 92,96 96,8"/>
</g></g><g transform="translate(1656,966) scale(0.69,0.69)"><g transform="" style="fill: rgb(0, 0, 0);">
<polygon points="8,4 4,92 92,96 96,8"/>
</g></g><g transform="translate(1725,966) scale(0.69,0.69)"><g transform="" style="fill: rgb(0, 0, 0);">
<polygon points="8,4 4,92 92,96 96,8"/>
</g></g><g transform="translate(1794,966) scale(0.69,0.69)"><g transform="" style="fill: rgb(0, 0, 0);">
<g>
	<polygon points="22,0 0,78 78,100 100,22"/>
</g>
</g></g><g transform="translate(207,1035) scale(0.69,0.69)"><g transform="" style="fill: rgb(0, 0, 0);">
<g>
	<polygon points="5,25 75,5 95,75 25,95"/>
</g>
</g></g><g transform="translate(276,1035) scale(0.69,0.69)"><g transform="" style="fill: rgb(0, 0, 0);">
<g>
	<polygon points="15,5 5,85 85,95 95,15"/>
</g>
</g></g><g transform="translate(552,1035) scale(0.69,0.69)"><g transform="" style="fill: rgb(0, 0, 0);">
<g>
	<polygon points="0,15 85,0 100,85 15,100"/>
</g>
</g></g><g transform="translate(690,1035) scale(0.69,0.69)"><g transform="" style="fill: rgb(0, 0, 0);">
<g>
	<polygon points="0,12 88,0 100,88 12,100"/>
</g>
</g></g><g transform="translate(759,1035) scale(0.69,0.69)"><g transform="" style="fill: rgb(0, 0, 0);">
<g>
	<polygon points="15,5 5,85 85,95 95,15"/>
</g>
</g></g><g transform="translate(1035,1035) scale(0.69,0.69)"><g transform="" style="fill: rgb(0, 0, 0);">
<g>
	<polygon points="0,15 85,0 100,85 15,100"/>
</g>
</g></g><g transform="translate(1242,1035) scale(0.69,0.69)"><g transform="" style="fill: rgb(0, 0, 0);">
<g>
	<polygon points="0,15 85,0 100,85 15,100"/>
</g>
</g></g><g transform="translate(1449,1035) scale(0.69,0.69)"><g transform="" style="fill: rgb(0, 0, 0);">
<g>
	<polygon points="13,0 0,87 87,100 100,13"/>
</g>
</g></g><g transform="translate(1518,1035) scale(0.69,0.69)"><g transform="" style="fill: rgb(0, 0, 0);">
<polygon points="8,4 4,92 92,96 96,8"/>
</g></g><g transform="translate(1587,1035) scale(0.69,0.69)"><g transform="" style="fill: rgb(0, 0, 0);">
<polygon points="8,4 4,92 92,96 96,8"/>
</g></g><g transform="translate(1656,1035) scale(0.69,0.69)"><g transform="" style="fill: rgb(0, 0, 0);">
<g>
	<polygon points="0,17 83,0 100,83 17,100"/>
</g>
</g></g><g transform="translate(1794,1035) scale(0.69,0.69)"><g transform="" style="fill: rgb(0, 0, 0);">
<polygon points="8,4 4,92 92,96 96,8"/>
</g></g><g transform="translate(1932,1035) scale(0.69,0.69)"><g transform="" style="fill: rgb(0, 0, 0);">
<g>
	<polygon points="0,15 85,0 100,85 15,100"/>
</g>
</g></g><g transform="translate(69,1104) scale(0.69,0.69)"><g transform="" style="fill: rgb(0, 0, 0);">
<g>
	<polygon points="0,15 85,0 100,85 15,100"/>
</g>
</g></g><g transform="translate(414,1104) scale(0.69,0.69)"><g transform="" style="fill: rgb(0, 0, 0);">
<g>
	<polygon points="0,15 85,0 100,85 15,100"/>
</g>
</g></g><g transform="translate(621,1104) scale(0.69,0.69)"><g transform="" style="fill: rgb(0, 0, 0);">
<g>
	<polygon points="0,12 88,0 100,88 12,100"/>
</g>
</g></g><g transform="translate(690,1104) scale(0.69,0.69)"><g transform="" style="fill: rgb(0, 0, 0);">
<g>
	<polygon points="0,17 83,0 100,83 17,100"/>
</g>
</g></g><g transform="translate(828,1104) scale(0.69,0.69)"><g transform="" style="fill: rgb(0, 0, 0);">
<g>
	<polygon points="0,5 95,0 100,95 5,100"/>
</g>
</g></g><g transform="translate(1104,1104) scale(0.69,0.69)"><g transform="" style="fill: rgb(0, 0, 0);">
<g>
	<polygon points="5,25 75,5 95,75 25,95"/>
</g>
</g></g><g transform="translate(1173,1104) scale(0.69,0.69)"><g transform="" style="fill: rgb(0, 0, 0);">
<g>
	<polygon points="22,0 0,78 78,100 100,22"/>
</g>
</g></g><g transform="translate(1311,1104) scale(0.69,0.69)"><g transform="" style="fill: rgb(0, 0, 0);">
<g>
	<polygon points="0,5 95,0 100,95 5,100"/>
</g>
</g></g><g transform="translate(1725,1104) scale(0.69,0.69)"><g transform="" style="fill: rgb(0, 0, 0);">
<g>
	<polygon points="5,25 75,5 95,75 25,95"/>
</g>
</g></g><g transform="translate(1794,1104) scale(0.69,0.69)"><g transform="" style="fill: rgb(0, 0, 0);">
<polygon points="8,4 4,92 92,96 96,8"/>
</g></g><g transform="translate(0,1173) scale(0.69,0.69)"><g transform="" style="fill: rgb(0, 0, 0);">
<g>
	<polygon points="0,5 95,0 100,95 5,100"/>
</g>
</g></g><g transform="translate(207,1173) scale(0.69,0.69)"><g transform="" style="fill: rgb(0, 0, 0);">
<g>
	<polygon points="5,25 75,5 95,75 25,95"/>
</g>
</g></g><g transform="translate(276,1173) scale(0.69,0.69)"><g transform="" style="fill: rgb(0, 0, 0);">
<g>
	<polygon points="22,0 0,78 78,100 100,22"/>
</g>
</g></g><g transform="translate(621,1173) scale(0.69,0.69)"><g transform="" style="fill: rgb(0, 0, 0);">
<polygon points="8,4 4,92 92,96 96,8"/>
</g></g><g transform="translate(828,1173) scale(0.69,0.69)"><g transform="" style="fill: rgb(0, 0, 0);">
<polygon points="8,4 4,92 92,96 96,8"/>
</g></g><g transform="translate(897,1173) scale(0.69,0.69)"><g transform="" style="fill: rgb(0, 0, 0);">
<polygon points="8,4 4,92 92,96 96,8"/>
</g></g><g transform="translate(966,1173) scale(0.69,0.69)"><g transform="" style="fill: rgb(0, 0, 0);">
<g>
	<polygon points="15,5 5,85 85,95 95,15"/>
</g>
</g></g><g transform="translate(1173,1173) scale(0.69,0.69)"><g transform="" style="fill: rgb(0, 0, 0);">
<g>
	<polygon points="13,0 0,87 87,100 100,13"/>
</g>
</g></g><g transform="translate(1242,1173) scale(0.69,0.69)"><g transform="" style="fill: rgb(0, 0, 0);">
<polygon points="8,4 4,92 92,96 96,8"/>
</g></g><g transform="translate(1311,1173) scale(0.69,0.69)"><g transform="" style="fill: rgb(0, 0, 0);">
<polygon points="8,4 4,92 92,96 96,8"/>
</g></g><g transform="translate(1518,1173) scale(0.69,0.69)"><g transform="" style="fill: rgb(0, 0, 0);">
<g>
	<polygon points="5,25 75,5 95,75 25,95"/>
</g>
</g></g><g transform="translate(1587,1173) scale(0.69,0.69)"><g transform="" style="fill: rgb(0, 0, 0);">
<polygon points="8,4 4,92 92,96 96,8"/>
</g></g><g transform="translate(1656,1173) scale(0.69,0.69)"><g transform="" style="fill: rgb(0, 0, 0);">
<g>
	<polygon points="22,0 0,78 78,100 100,22"/>
</g>
</g></g><g transform="translate(1794,1173) scale(0.69,0.69)"><g transform="" style="fill: rgb(0, 0, 0);">
<g>
	<polygon points="13,0 0,87 87,100 100,13"/>
</g>
</g></g><g transform="translate(1863,1173) scale(0.69,0.69)"><g transform="" style="fill: rgb(0, 0, 0);">
<polygon points="8,4 4,92 92,96 96,8"/>
</g></g><g transform="translate(1932,1173) scale(0.69,0.69)"><g transform="" style="fill: rgb(0, 0, 0);">
<g>
	<polygon points="22,0 0,78 78,100 100,22"/>
</g>
</g></g><g transform="translate(0,1242) scale(0.69,0.69)"><g transform="" style="fill: rgb(0, 0, 0);">
<polygon points="8,4 4,92 92,96 96,8"/>
</g></g><g transform="translate(69,1242) scale(0.69,0.69)"><g transform="" style="fill: rgb(0, 0, 0);">
<g>
	<polygon points="15,5 5,85 85,95 95,15"/>
</g>
</g></g><g transform="translate(276,1242) scale(0.69,0.69)"><g transform="" style="fill: rgb(0, 0, 0);">
<polygon points="8,4 4,92 92,96 96,8"/>
</g></g><g transform="translate(414,1242) scale(0.69,0.69)"><g transform="" style="fill: rgb(0, 0, 0);">
<g>
	<polygon points="5,25 75,5 95,75 25,95"/>
</g>
</g></g><g transform="translate(483,1242) scale(0.69,0.69)"><g transform="" style="fill: rgb(0, 0, 0);">
<g>
	<polygon points="22,0 0,78 78,100 100,22"/>
</g>
</g></g><g transform="translate(621,1242) scale(0.69,0.69)"><g transform="" style="fill: rgb(0, 0, 0);">
<g>
	<polygon points="13,0 0,87 87,100 100,13"/>
</g>
</g></g><g transform="translate(690,1242) scale(0.69,0.69)"><g transform="" style="fill: rgb(0, 0, 0);">
<g>
	<polygon points="15,5 5,85 85,95 95,15"/>
</g>
</g></g><g transform="translate(828,1242) scale(0.69,0.69)"><g transform="" style="fill: rgb(0, 0, 0);">
<polygon points="8,4 4,92 92,96 96,8"/>
</g></g><g transform="translate(1035,1242) scale(0.69,0.69)"><g transform="" style="fill: rgb(0, 0, 0);">
<g>
	<polygon points="0,15 85,0 100,85 15,100"/>
</g>
</g></g><g transform="translate(1311,1242) scale(0.69,0.69)"><g transform="" style="fill: rgb(0, 0, 0);">
<g>
	<polygon points="0,10 90,0 100,90 10,100"/>
</g>
</g></g><g transform="translate(1587,1242) scale(0.69,0.69)"><g transform="" style="fill: rgb(0, 0, 0);">
<polygon points="8,4 4,92 92,96 96,8"/>
</g></g><g transform="translate(1656,1242) scale(0.69,0.69)"><g transform="" style="fill: rgb(0, 0, 0);">
<polygon points="8,4 4,92 92,96 96,8"/>
</g></g><g transform="translate(1725,1242) scale(0.69,0.69)"><g transform="" style="fill: rgb(0, 0, 0);">
<g>
	<polygon points="15,5 5,85 85,95 95,15"/>
</g>
</g></g><g transform="translate(1932,1242) scale(0.69,0.69)"><g transform="" style="fill: rgb(0, 0, 0);">
<g>
	<polygon points="0,10 90,0 100,90 10,100"/>
</g>
</g></g><g transform="translate(0,1311) scale(0.69,0.69)"><g transform="" style="fill: rgb(0, 0, 0);">
<polygon points="8,4 4,92 92,96 96,8"/>
</g></g><g transform="translate(138,1311) scale(0.69,0.69)"><g transform="" style="fill: rgb(0, 0, 0);">
<g>
	<polygon points="0,15 85,0 100,85 15,100"/>
</g>
</g></g><g transform="translate(276,1311) scale(0.69,0.69)"><g transform="" style="fill: rgb(0, 0, 0);">
<polygon points="8,4 4,92 92,96 96,8"/>
</g></g><g transform="translate(483,1311) scale(0.69,0.69)"><g transform="" style="fill: rgb(0, 0, 0);">
<polygon points="8,4 4,92 92,96 96,8"/>
</g></g><g transform="translate(828,1311) scale(0.69,0.69)"><g transform="" style="fill: rgb(0, 0, 0);">
<g>
	<polygon points="13,0 0,87 87,100 100,13"/>
</g>
</g></g><g transform="translate(897,1311) scale(0.69,0.69)"><g transform="" style="fill: rgb(0, 0, 0);">
<g>
	<polygon points="15,5 5,85 85,95 95,15"/>
</g>
</g></g><g transform="translate(1518,1311) scale(0.69,0.69)"><g transform="" style="fill: rgb(0, 0, 0);">
<g>
	<polygon points="0,12 88,0 100,88 12,100"/>
</g>
</g></g><g transform="translate(1587,1311) scale(0.69,0.69)"><g transform="" style="fill: rgb(0, 0, 0);">
<polygon points="8,4 4,92 92,96 96,8"/>
</g></g><g transform="translate(0,1380) scale(0.69,0.69)"><g transform="" style="fill: rgb(0, 0, 0);">
<g>
	<polygon points="0,10 90,0 100,90 10,100"/>
</g>
</g></g><g transform="translate(207,1380) scale(0.69,0.69)"><g transform="" style="fill: rgb(0, 0, 0);">
<g>
	<polygon points="5,25 75,5 95,75 25,95"/>
</g>
</g></g><g transform="translate(276,1380) scale(0.69,0.69)"><g transform="" style="fill: rgb(0, 0, 0);">
<g>
	<polygon points="0,17 83,0 100,83 17,100"/>
</g>
</g></g><g transform="translate(414,1380) scale(0.69,0.69)"><g transform="" style="fill: rgb(0, 0, 0);">
<g>
	<polygon points="5,25 75,5 95,75 25,95"/>
</g>
</g></g><g transform="translate(483,1380) scale(0.69,0.69)"><g transform="" style="fill: rgb(0, 0, 0);">
<polygon points="8,4 4,92 92,96 96,8"/>
</g></g><g transform="translate(552,1380) scale(0.69,0.69)"><g transform="" style="fill: rgb(0, 0, 0);">
<g>
	<polygon points="22,0 0,78 78,100 100,22"/>
</g>
</g></g><g transform="translate(690,1380) scale(0.69,0.69)"><g transform="" style="fill: rgb(0, 0, 0);">
<g>
	<polygon points="0,15 85,0 100,85 15,100"/>
</g>
</g></g><g transform="translate(966,1380) scale(0.69,0.69)"><g transform="" style="fill: rgb(0, 0, 0);">
<g>
	<polygon points="0,12 88,0 100,88 12,100"/>
</g>
</g></g><g transform="translate(1035,1380) scale(0.69,0.69)"><g transform="" style="fill: rgb(0, 0, 0);">
<g>
	<polygon points="15,5 5,85 85,95 95,15"/>
</g>
</g></g><g transform="translate(1173,1380) scale(0.69,0.69)"><g transform="" style="fill: rgb(0, 0, 0);">
<g>
	<polygon points="0,15 85,0 100,85 15,100"/>
</g>
</g></g><g transform="translate(1380,1380) scale(0.69,0.69)"><g transform="" style="fill: rgb(0, 0, 0);">
<g>
	<polygon points="0,12 88,0 100,88 12,100"/>
</g>
</g></g><g transform="translate(1449,1380) scale(0.69,0.69)"><g transform="" style="fill: rgb(0, 0, 0);">
<polygon points="8,4 4,92 92,96 96,8"/>
</g></g><g transform="translate(1518,1380) scale(0.69,0.69)"><g transform="" style="fill: rgb(0, 0, 0);">
<polygon points="8,4 4,92 92,96 96,8"/>
</g></g><g transform="translate(1587,1380) scale(0.69,0.69)"><g transform="" style="fill: rgb(0, 0, 0);">
<polygon points="8,4 4,92 92,96 96,8"/>
</g></g><g transform="translate(1656,1380) scale(0.69,0.69)"><g transform="" style="fill: rgb(0, 0, 0);">
<g>
	<polygon points="22,0 0,78 78,100 100,22"/>
</g>
</g></g><g transform="translate(1794,1380) scale(0.69,0.69)"><g transform="" style="fill: rgb(0, 0, 0);">
<g>
	<polygon points="5,25 75,5 95,75 25,95"/>
</g>
</g></g><g transform="translate(1863,1380) scale(0.69,0.69)"><g transform="" style="fill: rgb(0, 0, 0);">
<polygon points="8,4 4,92 92,96 96,8"/>
</g></g><g transform="translate(1932,1380) scale(0.69,0.69)"><g transform="" style="fill: rgb(0, 0, 0);">
<g>
	<polygon points="15,5 5,85 85,95 95,15"/>
</g>
</g></g><g transform="translate(552,1449) scale(0.69,0.69)"><g transform="" style="fill: rgb(0, 0, 0);">
<g>
	<polygon points="0,10 90,0 100,90 10,100"/>
</g>
</g></g><g transform="translate(759,1449) scale(0.69,0.69)"><g transform="" style="fill: rgb(0, 0, 0);">
<g>
	<polygon points="0,15 85,0 100,85 15,100"/>
</g>
</g></g><g transform="translate(966,1449) scale(0.69,0.69)"><g transform="" style="fill: rgb(0, 0, 0);">
<g>
	<polygon points="0,10 90,0 100,90 10,100"/>
</g>
</g></g><g transform="translate(1380,1449) scale(0.69,0.69)"><g transform="" style="fill: rgb(0, 0, 0);">
<polygon points="8,4 4,92 92,96 96,8"/>
</g></g><g transform="translate(1656,1449) scale(0.69,0.69)"><g transform="" style="fill: rgb(0, 0, 0);">
<polygon points="8,4 4,92 92,96 96,8"/>
</g></g><g transform="translate(1725,1449) scale(0.69,0.69)"><g transform="" style="fill: rgb(0, 0, 0);">
<g>
	<polygon points="22,0 0,78 78,100 100,22"/>
</g>
</g></g><g transform="translate(621,1518) scale(0.69,0.69)"><g transform="" style="fill: rgb(0, 0, 0);">
<g>
	<polygon points="0,12 88,0 100,88 12,100"/>
</g>
</g></g><g transform="translate(690,1518) scale(0.69,0.69)"><g transform="" style="fill: rgb(0, 0, 0);">
<g>
	<polygon points="15,5 5,85 85,95 95,15"/>
</g>
</g></g><g transform="translate(1173,1518) scale(0.69,0.69)"><g transform="" style="fill: rgb(0, 0, 0);">
<g>
	<polygon points="0,15 85,0 100,85 15,100"/>
</g>
</g></g><g transform="translate(1311,1518) scale(0.69,0.69)"><g transform="" style="fill: rgb(0, 0, 0);">
<g>
	<polygon points="0,12 88,0 100,88 12,100"/>
</g>
</g></g><g transform="translate(1380,1518) scale(0.69,0.69)"><g transform="" style="fill: rgb(0, 0, 0);">
<polygon points="8,4 4,92 92,96 96,8"/>
</g></g><g transform="translate(1518,1518) scale(0.69,0.69)"><g transform="" style="fill: rgb(0, 0, 0);">
<g>
	<polygon points="0,15 85,0 100,85 15,100"/>
</g>
</g></g><g transform="translate(1656,1518) scale(0.69,0.69)"><g transform="" style="fill: rgb(0, 0, 0);">
<polygon points="8,4 4,92 92,96 96,8"/>
</g></g><g transform="translate(1725,1518) scale(0.69,0.69)"><g transform="" style="fill: rgb(0, 0, 0);">
<polygon points="8,4 4,92 92,96 96,8"/>
</g></g><g transform="translate(1794,1518) scale(0.69,0.69)"><g transform="" style="fill: rgb(0, 0, 0);">
<g>
	<polygon points="15,5 5,85 85,95 95,15"/>
</g>
</g></g><g transform="translate(621,1587) scale(0.69,0.69)"><g transform="" style="fill: rgb(0, 0, 0);">
<g>
	<polygon points="0,10 90,0 100,90 10,100"/>
</g>
</g></g><g transform="translate(966,1587) scale(0.69,0.69)"><g transform="" style="fill: rgb(0, 0, 0);">
<g>
	<polygon points="0,12 88,0 100,88 12,100"/>
</g>
</g></g><g transform="translate(1035,1587) scale(0.69,0.69)"><g transform="" style="fill: rgb(0, 0, 0);">
<polygon points="8,4 4,92 92,96 96,8"/>
</g></g><g transform="translate(1104,1587) scale(0.69,0.69)"><g transform="" style="fill: rgb(0, 0, 0);">
<g>
	<polygon points="22,0 0,78 78,100 100,22"/>
</g>
</g></g><g transform="translate(1242,1587) scale(0.69,0.69)"><g transform="" style="fill: rgb(0, 0, 0);">
<g>
	<polygon points="5,25 75,5 95,75 25,95"/>
</g>
</g></g><g transform="translate(1311,1587) scale(0.69,0.69)"><g transform="" style="fill: rgb(0, 0, 0);">
<polygon points="8,4 4,92 92,96 96,8"/>
</g></g><g transform="translate(1380,1587) scale(0.69,0.69)"><g transform="" style="fill: rgb(0, 0, 0);">
<polygon points="8,4 4,92 92,96 96,8"/>
</g></g><g transform="translate(1656,1587) scale(0.69,0.69)"><g transform="" style="fill: rgb(0, 0, 0);">
<polygon points="8,4 4,92 92,96 96,8"/>
</g></g><g transform="translate(1932,1587) scale(0.69,0.69)"><g transform="" style="fill: rgb(0, 0, 0);">
<g>
	<polygon points="0,15 85,0 100,85 15,100"/>
</g>
</g></g><g transform="translate(690,1656) scale(0.69,0.69)"><g transform="" style="fill: rgb(0, 0, 0);">
<g>
	<polygon points="0,12 88,0 100,88 12,100"/>
</g>
</g></g><g transform="translate(759,1656) scale(0.69,0.69)"><g transform="" style="fill: rgb(0, 0, 0);">
<g>
	<polygon points="15,5 5,85 85,95 95,15"/>
</g>
</g></g><g transform="translate(897,1656) scale(0.69,0.69)"><g transform="" style="fill: rgb(0, 0, 0);">
<g>
	<polygon points="5,25 75,5 95,75 25,95"/>
</g>
</g></g><g transform="translate(966,1656) scale(0.69,0.69)"><g transform="" style="fill: rgb(0, 0, 0);">
<polygon points="8,4 4,92 92,96 96,8"/>
</g></g><g transform="translate(1104,1656) scale(0.69,0.69)"><g transform="" style="fill: rgb(0, 0, 0);">
<g>
	<polygon points="0,10 90,0 100,90 10,100"/>
</g>
</g></g><g transform="translate(1311,1656) scale(0.69,0.69)"><g transform="" style="fill: rgb(0, 0, 0);">
<g>
	<polygon points="13,0 0,87 87,100 100,13"/>
</g>
</g></g><g transform="translate(1380,1656) scale(0.69,0.69)"><g transform="" style="fill: rgb(0, 0, 0);">
<polygon points="8,4 4,92 92,96 96,8"/>
</g></g><g transform="translate(1449,1656) scale(0.69,0.69)"><g transform="" style="fill: rgb(0, 0, 0);">
<polygon points="8,4 4,92 92,96 96,8"/>
</g></g><g transform="translate(1518,1656) scale(0.69,0.69)"><g transform="" style="fill: rgb(0, 0, 0);">
<polygon points="8,4 4,92 92,96 96,8"/>
</g></g><g transform="translate(1587,1656) scale(0.69,0.69)"><g transform="" style="fill: rgb(0, 0, 0);">
<polygon points="8,4 4,92 92,96 96,8"/>
</g></g><g transform="translate(1656,1656) scale(0.69,0.69)"><g transform="" style="fill: rgb(0, 0, 0);">
<polygon points="8,4 4,92 92,96 96,8"/>
</g></g><g transform="translate(1725,1656) scale(0.69,0.69)"><g transform="" style="fill: rgb(0, 0, 0);">
<g>
	<polygon points="22,0 0,78 78,100 100,22"/>
</g>
</g></g><g transform="translate(621,1725) scale(0.69,0.69)"><g transform="" style="fill: rgb(0, 0, 0);">
<g>
	<polygon points="0,12 88,0 100,88 12,100"/>
</g>
</g></g><g transform="translate(690,1725) scale(0.69,0.69)"><g transform="" style="fill: rgb(0, 0, 0);">
<g>
	<polygon points="0,17 83,0 100,83 17,100"/>
</g>
</g></g><g transform="translate(966,1725) scale(0.69,0.69)"><g transform="" style="fill: rgb(0, 0, 0);">
<polygon points="8,4 4,92 92,96 96,8"/>
</g></g><g transform="translate(1173,1725) scale(0.69,0.69)"><g transform="" style="fill: rgb(0, 0, 0);">
<g>
	<polygon points="5,25 75,5 95,75 25,95"/>
</g>
</g></g><g transform="translate(1242,1725) scale(0.69,0.69)"><g transform="" style="fill: rgb(0, 0, 0);">
<g>
	<polygon points="22,0 0,78 78,100 100,22"/>
</g>
</g></g><g transform="translate(1380,1725) scale(0.69,0.69)"><g transform="" style="fill: rgb(0, 0, 0);">
<g>
	<polygon points="13,0 0,87 87,100 100,13"/>
</g>
</g></g><g transform="translate(1449,1725) scale(0.69,0.69)"><g transform="" style="fill: rgb(0, 0, 0);">
<polygon points="8,4 4,92 92,96 96,8"/>
</g></g><g transform="translate(1725,1725) scale(0.69,0.69)"><g transform="" style="fill: rgb(0, 0, 0);">
<polygon points="8,4 4,92 92,96 96,8"/>
</g></g><g transform="translate(1794,1725) scale(0.69,0.69)"><g transform="" style="fill: rgb(0, 0, 0);">
<polygon points="8,4 4,92 92,96 96,8"/>
</g></g><g transform="translate(1863,1725) scale(0.69,0.69)"><g transform="" style="fill: rgb(0, 0, 0);">
<g>
	<polygon points="22,0 0,78 78,100 100,22"/>
</g>
</g></g><g transform="translate(621,1794) scale(0.69,0.69)"><g transform="" style="fill: rgb(0, 0, 0);">
<polygon points="8,4 4,92 92,96 96,8"/>
</g></g><g transform="translate(897,1794) scale(0.69,0.69)"><g transform="" style="fill: rgb(0, 0, 0);">
<g>
	<polygon points="5,25 75,5 95,75 25,95"/>
</g>
</g></g><g transform="translate(966,1794) scale(0.69,0.69)"><g transform="" style="fill: rgb(0, 0, 0);">
<polygon points="8,4 4,92 92,96 96,8"/>
</g></g><g transform="translate(1035,1794) scale(0.69,0.69)"><g transform="" style="fill: rgb(0, 0, 0);">
<polygon points="8,4 4,92 92,96 96,8"/>
</g></g><g transform="translate(1104,1794) scale(0.69,0.69)"><g transform="" style="fill: rgb(0, 0, 0);">
<g>
	<polygon points="15,5 5,85 85,95 95,15"/>
</g>
</g></g><g transform="translate(1242,1794) scale(0.69,0.69)"><g transform="" style="fill: rgb(0, 0, 0);">
<polygon points="8,4 4,92 92,96 96,8"/>
</g></g><g transform="translate(1449,1794) scale(0.69,0.69)"><g transform="" style="fill: rgb(0, 0, 0);">
<polygon points="8,4 4,92 92,96 96,8"/>
</g></g><g transform="translate(1518,1794) scale(0.69,0.69)"><g transform="" style="fill: rgb(0, 0, 0);">
<polygon points="8,4 4,92 92,96 96,8"/>
</g></g><g transform="translate(1587,1794) scale(0.69,0.69)"><g transform="" style="fill: rgb(0, 0, 0);">
<polygon points="8,4 4,92 92,96 96,8"/>
</g></g><g transform="translate(1656,1794) scale(0.69,0.69)"><g transform="" style="fill: rgb(0, 0, 0);">
<polygon points="8,4 4,92 92,96 96,8"/>
</g></g><g transform="translate(1725,1794) scale(0.69,0.69)"><g transform="" style="fill: rgb(0, 0, 0);">
<polygon points="8,4 4,92 92,96 96,8"/>
</g></g><g transform="translate(1794,1794) scale(0.69,0.69)"><g transform="" style="fill: rgb(0, 0, 0);">
<polygon points="8,4 4,92 92,96 96,8"/>
</g></g><g transform="translate(1863,1794) scale(0.69,0.69)"><g transform="" style="fill: rgb(0, 0, 0);">
<g>
	<polygon points="0,17 83,0 100,83 17,100"/>
</g>
</g></g><g transform="translate(621,1863) scale(0.69,0.69)"><g transform="" style="fill: rgb(0, 0, 0);">
<polygon points="8,4 4,92 92,96 96,8"/>
</g></g><g transform="translate(690,1863) scale(0.69,0.69)"><g transform="" style="fill: rgb(0, 0, 0);">
<polygon points="8,4 4,92 92,96 96,8"/>
</g></g><g transform="translate(759,1863) scale(0.69,0.69)"><g transform="" style="fill: rgb(0, 0, 0);">
<g>
	<polygon points="22,0 0,78 78,100 100,22"/>
</g>
</g></g><g transform="translate(1035,1863) scale(0.69,0.69)"><g transform="" style="fill: rgb(0, 0, 0);">
<g>
	<polygon points="0,10 90,0 100,90 10,100"/>
</g>
</g></g><g transform="translate(1242,1863) scale(0.69,0.69)"><g transform="" style="fill: rgb(0, 0, 0);">
<polygon points="8,4 4,92 92,96 96,8"/>
</g></g><g transform="translate(1311,1863) scale(0.69,0.69)"><g transform="" style="fill: rgb(0, 0, 0);">
<g>
	<polygon points="22,0 0,78 78,100 100,22"/>
</g>
</g></g><g transform="translate(1449,1863) scale(0.69,0.69)"><g transform="" style="fill: rgb(0, 0, 0);">
<polygon points="8,4 4,92 92,96 96,8"/>
</g></g><g transform="translate(1518,1863) scale(0.69,0.69)"><g transform="" style="fill: rgb(0, 0, 0);">
<polygon points="8,4 4,92 92,96 96,8"/>
</g></g><g transform="translate(1587,1863) scale(0.69,0.69)"><g transform="" style="fill: rgb(0, 0, 0);">
<polygon points="8,4 4,92 92,96 96,8"/>
</g></g><g transform="translate(1656,1863) scale(0.69,0.69)"><g transform="" style="fill: rgb(0, 0, 0);">
<polygon points="8,4 4,92 92,96 96,8"/>
</g></g><g transform="translate(1725,1863) scale(0.69,0.69)"><g transform="" style="fill: rgb(0, 0, 0);">
<polygon points="8,4 4,92 92,96 96,8"/>
</g></g><g transform="translate(1794,1863) scale(0.69,0.69)"><g transform="" style="fill: rgb(0, 0, 0);">
<polygon points="8,4 4,92 92,96 96,8"/>
</g></g><g transform="translate(1932,1863) scale(0.69,0.69)"><g transform="" style="fill: rgb(0, 0, 0);">
<g>
	<polygon points="0,15 85,0 100,85 15,100"/>
</g>
</g></g><g transform="translate(552,1932) scale(0.69,0.69)"><g transform="" style="fill: rgb(0, 0, 0);">
<g>
	<polygon points="5,25 75,5 95,75 25,95"/>
</g>
</g></g><g transform="translate(621,1932) scale(0.69,0.69)"><g transform="" style="fill: rgb(0, 0, 0);">
<g>
	<polygon points="0,17 83,0 100,83 17,100"/>
</g>
</g></g><g transform="translate(759,1932) scale(0.69,0.69)"><g transform="" style="fill: rgb(0, 0, 0);">
<g>
	<polygon points="13,0 0,87 87,100 100,13"/>
</g>
</g></g><g transform="translate(828,1932) scale(0.69,0.69)"><g transform="" style="fill: rgb(0, 0, 0);">
<polygon points="8,4 4,92 92,96 96,8"/>
</g></g><g transform="translate(897,1932) scale(0.69,0.69)"><g transform="" style="fill: rgb(0, 0, 0);">
<g>
	<polygon points="15,5 5,85 85,95 95,15"/>
</g>
</g></g><g transform="translate(1173,1932) scale(0.69,0.69)"><g transform="" style="fill: rgb(0, 0, 0);">
<g>
	<polygon points="5,25 75,5 95,75 25,95"/>
</g>
</g></g><g transform="translate(1242,1932) scale(0.69,0.69)"><g transform="" style="fill: rgb(0, 0, 0);">
<polygon points="8,4 4,92 92,96 96,8"/>
</g></g><g transform="translate(1311,1932) scale(0.69,0.69)"><g transform="" style="fill: rgb(0, 0, 0);">
<g>
	<polygon points="0,17 83,0 100,83 17,100"/>
</g>
</g></g><g transform="translate(1449,1932) scale(0.69,0.69)"><g transform="" style="fill: rgb(0, 0, 0);">
<g>
	<polygon points="0,10 90,0 100,90 10,100"/>
</g>
</g></g><g transform="translate(1656,1932) scale(0.69,0.69)"><g transform="" style="fill: rgb(0, 0, 0);">
<g>
	<polygon points="0,10 90,0 100,90 10,100"/>
</g>
</g></g><g transform="translate(1794,1932) scale(0.69,0.69)"><g transform="" style="fill: rgb(0, 0, 0);">
<g>
	<polygon points="0,10 90,0 100,90 10,100"/>
</g>
</g></g><g transform="translate(0,0) scale(0.69, 0.69)"><g transform="" style="fill: rgb(0, 0, 0);">
<g>


	<polygon points="13,0 0,87 87,100 100,13"/>
	<polygon points="100,17 183,0 200,83 117,100"/>
	<polygon points="200,10 290,0 300,90 200,100"/>
	<polygon points="300,15 385,0 400,85 315,100"/>
	<polygon points="400,12 488,0 500,88 412,100"/>
	<polygon points="522,0 500,78 578,100 600,22"/>
	<polygon points="615,5 605,85 685,95 695,15"/>

	<polygon points="0,115 85,100 100,185 15,200"/>
	<polygon points="600,112 688,100 700,188 612,200"/>

	<polygon points="22,200 0,278 78,300 100,222"/>
	<polygon points="615,205 605,285 685,295 695,215"/>

	<polygon points="0,310 90,300 100,390 0,400"/>
	<polygon points="600,315 685,300 700,385 615,400"/>

	<polygon points="0,412 88,400 100,488 12,500"/>
	<polygon points="622,400 600,478 678,500 700,422"/>

	<polygon points="0,515 85,500 100,585 15,600"/>
	<polygon points="600,512 688,500 700,588 612,600"/>


	<polygon points="13,600 0,687 87,700 100,613"/>
	<polygon points="100,617 183,600 200,683 117,700"/>
	<polygon points="200,610 290,600 300,690 200,700"/>
	<polygon points="300,615 385,600 400,685 315,700"/>
	<polygon points="400,612 488,600 500,688 412,700"/>
	<polygon points="522,600 500,678 578,700 600,622"/>
	<polygon points="615,605 605,685 685,695 695,615"/>

</g>
</g></g><g transform="translate(1518,0) scale(0.69, 0.69)"><g transform=" translate(700, 0) scale(-1,1) " style="fill: rgb(0, 0, 0);">
<g>


	<polygon points="13,0 0,87 87,100 100,13"/>
	<polygon points="100,17 183,0 200,83 117,100"/>
	<polygon points="200,10 290,0 300,90 200,100"/>
	<polygon points="300,15 385,0 400,85 315,100"/>
	<polygon points="400,12 488,0 500,88 412,100"/>
	<polygon points="522,0 500,78 578,100 600,22"/>
	<polygon points="615,5 605,85 685,95 695,15"/>

	<polygon points="0,115 85,100 100,185 15,200"/>
	<polygon points="600,112 688,100 700,188 612,200"/>

	<polygon points="22,200 0,278 78,300 100,222"/>
	<polygon points="615,205 605,285 685,295 695,215"/>

	<polygon points="0,310 90,300 100,390 0,400"/>
	<polygon points="600,315 685,300 700,385 615,400"/>

	<polygon points="0,412 88,400 100,488 12,500"/>
	<polygon points="622,400 600,478 678,500 700,422"/>

	<polygon points="0,515 85,500 100,585 15,600"/>
	<polygon points="600,512 688,500 700,588 612,600"/>


	<polygon points="13,600 0,687 87,700 100,613"/>
	<polygon points="100,617 183,600 200,683 117,700"/>
	<polygon points="200,610 290,600 300,690 200,700"/>
	<polygon points="300,615 385,600 400,685 315,700"/>
	<polygon points="400,612 488,600 500,688 412,700"/>
	<polygon points="522,600 500,678 578,700 600,622"/>
	<polygon points="615,605 605,685 685,695 695,615"/>

</g>
</g></g><g transform="translate(0,1518) scale(0.69, 0.69)"><g transform=" translate(0,700) scale(1,-1) " style="fill: rgb(0, 0, 0);">
<g>


	<polygon points="13,0 0,87 87,100 100,13"/>
	<polygon points="100,17 183,0 200,83 117,100"/>
	<polygon points="200,10 290,0 300,90 200,100"/>
	<polygon points="300,15 385,0 400,85 315,100"/>
	<polygon points="400,12 488,0 500,88 412,100"/>
	<polygon points="522,0 500,78 578,100 600,22"/>
	<polygon points="615,5 605,85 685,95 695,15"/>

	<polygon points="0,115 85,100 100,185 15,200"/>
	<polygon points="600,112 688,100 700,188 612,200"/>

	<polygon points="22,200 0,278 78,300 100,222"/>
	<polygon points="615,205 605,285 685,295 695,215"/>

	<polygon points="0,310 90,300 100,390 0,400"/>
	<polygon points="600,315 685,300 700,385 615,400"/>

	<polygon points="0,412 88,400 100,488 12,500"/>
	<polygon points="622,400 600,478 678,500 700,422"/>

	<polygon points="0,515 85,500 100,585 15,600"/>
	<polygon points="600,512 688,500 700,588 612,600"/>


	<polygon points="13,600 0,687 87,700 100,613"/>
	<polygon points="100,617 183,600 200,683 117,700"/>
	<polygon points="200,610 290,600 300,690 200,700"/>
	<polygon points="300,615 385,600 400,685 315,700"/>
	<polygon points="400,612 488,600 500,688 412,700"/>
	<polygon points="522,600 500,678 578,700 600,622"/>
	<polygon points="615,605 605,685 685,695 695,615"/>

</g>
</g></g><g transform="translate(138,138) scale(0.69, 0.69)"><g transform="" style="fill: rgb(0, 0, 0);">
<g>

	<polygon points="13,0 0,87 87,100 100,13"/>
	<polygon points="100,17 183,0 200,83 117,100"/>
	<polygon points="200,10 290,0 300,90 200,100"/>

	<polygon points="5,125 75,105 195,175 25,195"/>
	<polygon points="65,63 62,232 228,238 236,68"/>
	<polygon points="215,105 205,185 285,195 295,115"/>

	<polygon points="0,215 85,200 100,285 15,300"/>
	<polygon points="100,212 188,200 200,288 112,300"/>
	<polygon points="222,200 200,278 278,300 300,222"/>


</g>
</g></g><g transform="translate(1656,138) scale(0.69, 0.69)"><g transform=" translate(300, 0) scale(-1,1) " style="fill: rgb(0, 0, 0);">
<g>

	<polygon points="13,0 0,87 87,100 100,13"/>
	<polygon points="100,17 183,0 200,83 117,100"/>
	<polygon points="200,10 290,0 300,90 200,100"/>

	<polygon points="5,125 75,105 195,175 25,195"/>
	<polygon points="65,63 62,232 228,238 236,68"/>
	<polygon points="215,105 205,185 285,195 295,115"/>

	<polygon points="0,215 85,200 100,285 15,300"/>
	<polygon points="100,212 188,200 200,288 112,300"/>
	<polygon points="222,200 200,278 278,300 300,222"/>


</g>
</g></g><g transform="translate(138,1656) scale(0.69, 0.69)"><g transform=" translate(0,300) scale(1,-1) " style="fill: rgb(0, 0, 0);">
<g>

	<polygon points="13,0 0,87 87,100 100,13"/>
	<polygon points="100,17 183,0 200,83 117,100"/>
	<polygon points="200,10 290,0 300,90 200,100"/>

	<polygon points="5,125 75,105 195,175 25,195"/>
	<polygon points="65,63 62,232 228,238 236,68"/>
	<polygon points="215,105 205,185 285,195 295,115"/>

	<polygon points="0,215 85,200 100,285 15,300"/>
	<polygon points="100,212 188,200 200,288 112,300"/>
	<polygon points="222,200 200,278 278,300 300,222"/>


</g>
</g></g></g></svg>